<svg width="65" height="65" viewBox="0 0 65 65" fill="none" xmlns="http://www.w3.org/2000/svg">
<path d="M54.1667 42.0063C50.8083 42.0063 47.5312 41.4646 44.4979 40.4625C44.2271 40.3542 43.9292 40.3271 43.6583 40.3271C42.9542 40.3271 42.2771 40.5979 41.7354 41.1125L35.7771 47.0708C28.1125 43.1437 21.8292 36.8875 17.9292 29.2229L23.8875 23.2646C24.6458 22.5063 24.8625 21.45 24.5646 20.5021C23.5625 17.4688 23.0208 14.2188 23.0208 10.8333C23.0208 9.34375 21.8021 8.125 20.3125 8.125H10.8333C9.34375 8.125 8.125 9.34375 8.125 10.8333C8.125 36.2646 28.7354 56.875 54.1667 56.875C55.6562 56.875 56.875 55.6563 56.875 54.1667V44.7146C56.875 43.225 55.6562 42.0063 54.1667 42.0063ZM13.6229 13.5417H17.6854C17.875 15.9521 18.2812 18.3083 18.9312 20.5563L15.6812 23.8063C14.5708 20.5563 13.8667 17.1167 13.6229 13.5417ZM51.4583 51.3771C47.8833 51.1333 44.4437 50.4292 41.1667 49.3458L44.3896 46.1229C46.6917 46.7729 49.0479 47.1792 51.4312 47.3417V51.3771H51.4583ZM48.75 24.375H41.7354L55.3312 10.7792L51.5125 6.96042L37.9167 20.5563V13.5417H32.5V29.7917H48.75V24.375Z" fill="#E63946"/>
</svg>
