<svg width="100" height="100" viewBox="0 0 100 100" fill="none" xmlns="http://www.w3.org/2000/svg">
<path d="M28.125 12.5C16.1765 12.5 12.5 16.1765 12.5 28.125C12.5 40.0735 16.1765 43.75 28.125 43.75C40.0735 43.75 43.75 40.0735 43.75 28.125C43.75 16.1765 40.0735 12.5 28.125 12.5Z" stroke="#E63946" stroke-width="3" stroke-linecap="round" stroke-linejoin="round"/>
<path d="M28.125 56.25C16.1765 56.25 12.5 59.9265 12.5 71.875C12.5 83.8235 16.1765 87.5 28.125 87.5C40.0735 87.5 43.75 83.8235 43.75 71.875C43.75 59.9265 40.0735 56.25 28.125 56.25Z" stroke="#E63946" stroke-width="3" stroke-linecap="round" stroke-linejoin="round"/>
<path d="M71.875 56.25C59.9265 56.25 56.25 59.9265 56.25 71.875C56.25 83.8235 59.9265 87.5 71.875 87.5C83.8235 87.5 87.5 83.8235 87.5 71.875C87.5 59.9265 83.8235 56.25 71.875 56.25Z" stroke="#E63946" stroke-width="3" stroke-linecap="round" stroke-linejoin="round"/>
<path d="M71.875 12.5C59.9265 12.5 56.25 16.1765 56.25 28.125C56.25 40.0735 59.9265 43.75 71.875 43.75C83.8235 43.75 87.5 40.0735 87.5 28.125C87.5 16.1765 83.8235 12.5 71.875 12.5Z" stroke="#E63946" stroke-width="3" stroke-linecap="round" stroke-linejoin="round"/>
</svg>
