<svg width="100" height="100" viewBox="0 0 100 100" fill="none" xmlns="http://www.w3.org/2000/svg">
<path d="M37.5 29.1667L37.5 16.6667C37.5 14.3655 39.3654 12.5 41.6666 12.5L58.3333 12.5C60.6345 12.5 62.5 14.3655 62.5 16.6667V29.1667M37.5 29.1667L62.5 29.1667M37.5 29.1667C32.8976 29.1667 29.1666 32.8976 29.1666 37.5L29.1666 62.5C29.1666 67.1024 32.8976 70.8333 37.5 70.8333M62.5 29.1667C67.1023 29.1667 70.8333 32.8976 70.8333 37.5L70.8333 62.5C70.8333 67.1024 67.1023 70.8333 62.5 70.8333M62.5 70.8333V83.3333C62.5 85.6345 60.6345 87.5 58.3333 87.5H41.6666C39.3654 87.5 37.5 85.6345 37.5 83.3333L37.5 70.8333M62.5 70.8333H37.5M29.1666 53.9642H37.3754C37.9303 53.9642 38.4375 53.6168 38.6857 53.0669L39.9003 50.3752C40.4402 49.1789 41.981 49.1789 42.5208 50.3752L45.7071 57.4361C46.2564 58.6534 47.8327 58.6261 48.3474 57.3904L54.5043 42.6096C55.0321 41.3425 56.6615 41.3553 57.173 42.6306L61.3325 53.0003C61.5676 53.5864 62.0922 53.9642 62.6711 53.9642H70.8333" stroke="#E63946" stroke-width="3" stroke-linecap="round" stroke-linejoin="round"/>
</svg>
