<svg width="100" height="100" viewBox="0 0 100 100" fill="none" xmlns="http://www.w3.org/2000/svg">
<path d="M29.1667 41.6667V37.5C29.1667 25.9941 38.4941 16.6667 50 16.6667C61.5059 16.6667 70.8333 25.9941 70.8333 37.5V41.6667C80.0381 41.6667 87.5 49.1286 87.5 58.3333C87.5 64.5023 84.1483 70.0349 79.1667 72.9167M29.1667 41.6667C19.9619 41.6667 12.5 49.1286 12.5 58.3333C12.5 64.5023 15.8517 70.0349 20.8333 72.9167M29.1667 41.6667C30.9702 41.6667 32.7069 41.9531 34.3336 42.4831M50 50V87.5M50 50L62.5 62.5M50 50L37.5 62.5" stroke="#E63946" stroke-width="3" stroke-linecap="round" stroke-linejoin="round"/>
</svg>
