<svg width="65" height="65" viewBox="0 0 65 65" fill="none" xmlns="http://www.w3.org/2000/svg">
<g clip-path="url(#clip0_259_183)">
<path d="M59.5832 24.3208V48.75C59.5832 51.7292 57.1457 54.1667 54.1665 54.1667H10.8332C7.854 54.1667 5.4165 51.7292 5.4165 48.75L5.44359 16.25C5.44359 13.2708 7.854 10.8333 10.8332 10.8333H38.1873C38.0248 11.7 37.9165 12.6208 37.9165 13.5417C37.9165 14.4625 38.0248 15.3833 38.1873 16.25H10.8332L32.4998 29.7917L42.4394 23.5896C43.7123 24.7542 45.2019 25.6479 46.854 26.2437L32.4998 35.2083L10.8332 21.6667V48.75H54.1665V26.8125C56.1707 26.4062 58.0123 25.5125 59.5832 24.3208ZM43.3332 13.5417C43.3332 18.0375 46.9623 21.6667 51.4582 21.6667C55.954 21.6667 59.5832 18.0375 59.5832 13.5417C59.5832 9.04583 55.954 5.41666 51.4582 5.41666C46.9623 5.41666 43.3332 9.04583 43.3332 13.5417Z" fill="#E63946"/>
</g>
<defs>
<clipPath id="clip0_259_183">
<rect width="65" height="65" fill="white"/>
</clipPath>
</defs>
</svg>
