<svg width="100" height="100" viewBox="0 0 100 100" fill="none" xmlns="http://www.w3.org/2000/svg">
<path d="M50 85.4167H66.6667M50 85.4167H33.3333M50 85.4167V68.75M50 68.75C66.6667 68.75 81.25 67.3611 83.3333 65.9722C85.4167 64.5833 87.5 52.7778 87.5 41.6667C87.5 30.5556 85.4167 18.75 83.3333 17.3611C81.25 15.9722 66.6667 14.5833 50 14.5833C33.3333 14.5833 18.75 15.9722 16.6667 17.3611C14.5833 18.75 12.5 30.5556 12.5 41.6667C12.5 52.7778 14.5833 64.5833 16.6667 65.9722C18.75 67.3611 33.3333 68.75 50 68.75Z" stroke="#E63946" stroke-width="3" stroke-linecap="round" stroke-linejoin="round"/>
</svg>
