<svg width="100" height="100" viewBox="0 0 100 100" fill="none" xmlns="http://www.w3.org/2000/svg">
<path d="M32.6389 56.6667C34.4085 60.0131 37.4144 62.7818 41.2037 64.5557C44.993 66.3296 49.3604 67.0126 53.648 66.5017C57.9355 65.9909 61.9109 64.3139 64.9751 61.7235L70.8334 57.2713M70.8333 66.6667V56.6667H60.4167M67.3611 43.3333C65.5916 39.987 62.5857 37.2183 58.7964 35.4444C55.0071 33.6704 50.6396 32.9875 46.3521 33.4983C42.0645 34.0091 38.0891 35.6861 35.0249 38.2766L29.1667 42.7287M29.1667 33.3333V43.3333H39.5833M87.5 50C87.5 70.7107 70.7107 87.5 50 87.5C29.2893 87.5 12.5 70.7107 12.5 50C12.5 29.2893 29.2893 12.5 50 12.5C70.7107 12.5 87.5 29.2893 87.5 50Z" stroke="#E63946" stroke-width="3" stroke-linecap="round" stroke-linejoin="round"/>
</svg>
