<svg width="100" height="100" viewBox="0 0 100 100" fill="none" xmlns="http://www.w3.org/2000/svg">
<path d="M79.1666 58.3333C88.3714 58.3333 95.8333 66.6667 95.8333 72.9167C95.8333 76.3685 93.0351 79.1667 89.5833 79.1667H87.5M70.8333 45.8333C77.7369 45.8333 83.3333 40.2369 83.3333 33.3333C83.3333 26.4298 77.7369 20.8333 70.8333 20.8333M20.8333 58.3333C11.6285 58.3333 4.16663 66.6667 4.16663 72.9167C4.16663 76.3685 6.96485 79.1667 10.4166 79.1667H12.5M29.1666 45.8333C22.2631 45.8333 16.6666 40.2369 16.6666 33.3333C16.6666 26.4298 22.2631 20.8333 29.1666 20.8333M68.75 79.1667H31.25C27.7982 79.1667 25 76.3685 25 72.9167C25 62.5 37.5 58.3333 50 58.3333C62.5 58.3333 75 62.5 75 72.9167C75 76.3685 72.2017 79.1667 68.75 79.1667ZM62.5 33.3333C62.5 40.2369 56.9035 45.8333 50 45.8333C43.0964 45.8333 37.5 40.2369 37.5 33.3333C37.5 26.4298 43.0964 20.8333 50 20.8333C56.9035 20.8333 62.5 26.4298 62.5 33.3333Z" stroke="#E63946" stroke-width="3" stroke-linecap="round" stroke-linejoin="round"/>
</svg>
