<svg width="100" height="100" viewBox="0 0 100 100" fill="none" xmlns="http://www.w3.org/2000/svg">
<path d="M25 57.8083C17.8116 55.9581 12.5 49.4327 12.5 41.6667C12.5 32.4619 19.9619 25 29.1667 25C29.8722 25 30.5675 25.0438 31.25 25.1289C33.824 17.8465 39.753 12.5 47.9169 12.5C55.0517 12.5 61.624 16.5215 64.7929 22.3873C66.5834 21.397 68.6427 20.8333 70.8337 20.8333C77.7373 20.8333 83.3337 26.4298 83.3337 33.3333C83.3337 37.6812 81.1139 41.5106 77.7458 43.75C82.2268 45.1822 85.5574 49.3805 85.5574 54.3367C85.5574 60.4738 80.5823 65.4488 74.4453 65.4488C68.3082 65.4488 64.3527 61.8907 62.5 58.3333C58.3979 60.4563 53.3514 58.8518 51.2285 54.7497M25 57.8083C25 63.9453 29.975 69.4455 36.1121 69.4455C42.7794 69.4455 58.6985 68.7811 58.6985 77.6708V86.5605M25 57.8083C25 51.6712 29.975 47.2212 36.1121 47.2212M41.1242 33.3497C43.4337 29.3496 48.5486 27.9791 52.5487 30.2885C56.5488 32.598 57.9194 37.7129 55.6099 41.713" stroke="#E63946" stroke-width="3" stroke-linecap="round" stroke-linejoin="round"/>
</svg>
