<svg width="100" height="100" viewBox="0 0 100 100" fill="none" xmlns="http://www.w3.org/2000/svg">
<path d="M72.9166 87.5005H27.0833C21.3303 87.5005 16.6666 82.8368 16.6666 77.0838C16.6666 60.0807 41.6666 60.4172 50 60.4172C58.3333 60.4172 83.3333 60.0807 83.3333 77.0838C83.3333 82.8368 78.6696 87.5005 72.9166 87.5005Z" stroke="#E63946" stroke-width="3" stroke-linecap="round" stroke-linejoin="round"/>
<path d="M50 45.8333C59.2047 45.8333 66.6666 38.3714 66.6666 29.1667C66.6666 19.9619 59.2047 12.5 50 12.5C40.7952 12.5 33.3333 19.9619 33.3333 29.1667C33.3333 38.3714 40.7952 45.8333 50 45.8333Z" stroke="#E63946" stroke-width="3" stroke-linecap="round" stroke-linejoin="round"/>
<path d="M84.8573 37.8573L84.238 37.2553C83.2232 36.2686 81.8467 35.7143 80.4115 35.7143C77.3809 35.7143 75 37.9464 75 42.0916C75 49.1071 85.7142 53.5714 85.7142 53.5714C85.7142 53.5714 96.4285 49.1071 96.4285 42.0916C96.4285 37.9464 94.0057 35.7143 91.017 35.7143C89.5818 35.7143 88.2053 36.2686 87.1905 37.2553L86.5712 37.8573C86.103 38.3125 85.3254 38.3125 84.8573 37.8573Z" stroke="#E63946" stroke-width="3" stroke-linecap="round" stroke-linejoin="round"/>
</svg>
